# xmcd CD database file
#
# Track frame offsets:
#	182
#	20737
#	49967
#	67335
#	82751
#	100847
#	118730
#	132905
#
# Disc length: 2161 seconds
#
# Revision: 0
# Processed by: cddbd v1.5.1PL0 Copyright (c) Steve Scherf et al.
# Submitted via: CDex 1.51
#
DISCID=6e086f08
DTITLE=Philip Tabane and Malombo - Malombo
DYEAR=1998
DGENRE=Jazz
TTITLE0=Motshile (a boy's name)
TTITLE1=Mashaba (a dedicated fan's name)
TTITLE2=Ke Kgale (long time)
TTITLE3=Ngwanya oyalela (crying child)
TTITLE4=Hi Congo (for a singer from Zimbabwe)
TTITLE5=Sangoma (witch-doctor)
TTITLE6=Phamba Madiba (big river)
TTITLE7=Thabang (Philip's son)
EXTD=YEAR: 1998
EXTT0=
EXTT1=
EXTT2=
EXTT3=
EXTT4=
EXTT5=
EXTT6=
EXTT7=
PLAYORDER=
